<svg xmlns="http://www.w3.org/2000/svg" width="512" height="512" viewBox="0 0 512 512">
  <defs>
    <linearGradient id="bg" x1="0" y1="0" x2="1" y2="1">
      <stop offset="0" stop-color="#172532"/>
      <stop offset="1" stop-color="#090d13"/>
    </linearGradient>
    <linearGradient id="shell" x1="0" y1="0" x2="1" y2="1">
      <stop offset="0" stop-color="#f4fbff"/>
      <stop offset="1" stop-color="#aebdca"/>
    </linearGradient>
  </defs>
  <rect x="20" y="20" width="472" height="472" rx="112" fill="url(#bg)"/>
  <path d="M256 74c-77 0-132 59-132 145v77c0 91 54 144 132 144s132-53 132-144v-77c0-86-55-145-132-145Z" fill="url(#shell)"/>
  <path d="M256 78v146m0-146c-44 0-76 35-76 84v62h76m0-146c44 0 76 35 76 84v62h-76" fill="none" stroke="#758998" stroke-width="10" stroke-linecap="round" stroke-linejoin="round"/>
  <rect x="241" y="132" width="30" height="66" rx="15" fill="#45d9d0"/>
  <path d="M256 224v205" stroke="#758998" stroke-width="8" opacity=".55"/>
  <circle cx="256" cy="330" r="10" fill="#45d9d0"/>
  <rect x="319" y="347" width="142" height="76" rx="38" fill="#45d9d0"/>
  <text x="390" y="399" text-anchor="middle" font-family="sans-serif" font-size="43" font-weight="800" fill="#0b1118">4K</text>
</svg>
